#Comment line ignore any data following # character 
#Hierarchical Translation and Rotation (.htr) file 
[Header]	
#Header keywords are followed by a single value 
FileType HTR		#Single word string
DataType HTRS		#Translation followed by rotation and scale data
FileVersion 1		#integer
NumSegments 84		#integer
NumFrames 2		#integer
DataFrameRate 30		#integer, data frame rate in this file
EulerRotationOrder ZYX
CalibrationUnits mm
RotationUnits Degrees
GlobalAxisofGravity Y
BoneLengthAxis Y
ScaleFactor 1.00
[SegmentNames&Hierarchy]
#CHILD	PARENT
MASTER GLOBAL
root MASTER
chest root
L_mid_tent01 root
R_mid_tent01 root
spine01 root
Bip01_Neck chest
L_humerus chest
R_humerus chest
weapon_bone chest
Bip01_Head Bip01_Neck
eye_left_bone Bip01_Head
eye_right_bone Bip01_Head
L_forearm L_humerus
L_front_hand L_forearm
L_weapon_bone L_forearm
L_front_hand01_01 L_front_hand
L_front_hand02_01 L_front_hand
L_front_hand03_01 L_front_hand
L_front_hand01_02 L_front_hand01_01
L_front_hand02_02 L_front_hand02_01
L_front_hand03_02 L_front_hand03_01
R_forearm R_humerus
R_front_hand R_forearm
R_weapon_bone R_forearm
R_front_hand01_01 R_front_hand
R_front_hand02_01 R_front_hand
R_front_hand03_01 R_front_hand
R_front_hand01_02 R_front_hand01_01
R_front_hand02_02 R_front_hand02_01
R_front_hand03_02 R_front_hand03_01
null_rope01_connect L_mid_tent01
Rope1_Seg01 null_rope01_connect
Rope1_Seg02 Rope1_Seg01
Rope1_Seg03 Rope1_Seg02
Rope1_Seg04 Rope1_Seg03
Rope1_Seg05 Rope1_Seg04
Rope1_Seg06 Rope1_Seg05
Rope1_Seg07 Rope1_Seg06
Rope1_Seg09 Rope1_Seg07
L_mid_hand01 Rope1_Seg09
L_mid_hand02 Rope1_Seg09
L_mid_hand03 Rope1_Seg09
null_rope02_connect R_mid_tent01
Rope2_Seg01 null_rope02_connect
Rope2_Seg02 Rope2_Seg01
Rope2_Seg03 Rope2_Seg02
Rope2_Seg04 Rope2_Seg03
Rope2_Seg05 Rope2_Seg04
Rope2_Seg06 Rope2_Seg05
Rope2_Seg07 Rope2_Seg06
Rope2_Seg09 Rope2_Seg07
R_mid_hand01 Rope2_Seg09
R_mid_hand02 Rope2_Seg09
R_mid_hand03 Rope2_Seg09
spine02 spine01
spine03 spine02
pelvis spine03
null_rope03_connect pelvis
null_rope04_connect pelvis
Rope3_Seg01 null_rope03_connect
Rope3_Seg02 Rope3_Seg01
Rope3_Seg03 Rope3_Seg02
Rope3_Seg04 Rope3_Seg03
Rope3_Seg05 Rope3_Seg04
Rope3_Seg06 Rope3_Seg05
Rope3_Seg07 Rope3_Seg06
Rope3_Seg08 Rope3_Seg07
Rope3_Seg09 Rope3_Seg08
R_rear_hand01 Rope3_Seg09
R_rear_hand02 Rope3_Seg09
R_rear_hand03 Rope3_Seg09
Rope4_Seg01 null_rope04_connect
Rope4_Seg02 Rope4_Seg01
Rope4_Seg03 Rope4_Seg02
Rope4_Seg04 Rope4_Seg03
Rope4_Seg05 Rope4_Seg04
Rope4_Seg06 Rope4_Seg05
Rope4_Seg07 Rope4_Seg06
Rope4_Seg08 Rope4_Seg07
Rope4_Seg09 Rope4_Seg08
L_rear_hand01 Rope4_Seg09
L_rear_hand02 Rope4_Seg09
L_rear_hand03 Rope4_Seg09
[BasePosition]
#SegmentName Tx, Ty, Tz, Rx, Ry, Rz, BoneLength
MASTER 0.000000 0.000000 0.000000 -90.000000 0.000000 0.000000 10.000000 
root 0.000000 0.000000 0.000000 0.000000 0.000000 0.000000 10.000000 
chest 0.000000 0.000000 0.000000 0.000000 0.000000 0.000000 10.000000 
L_mid_tent01 0.000000 0.000000 0.000000 0.000000 0.000000 0.000000 10.000000 
R_mid_tent01 0.000000 0.000000 0.000000 0.000000 0.000000 0.000000 10.000000 
spine01 0.000000 0.000000 0.000000 0.000000 0.000000 0.000000 10.000000 
Bip01_Neck 0.000000 0.000000 0.000000 0.000000 0.000000 0.000000 10.000000 
L_humerus 0.000000 0.000000 0.000000 0.000000 0.000000 0.000000 10.000000 
R_humerus 0.000000 0.000000 0.000000 0.000000 0.000000 0.000000 10.000000 
weapon_bone 0.000000 0.000000 0.000000 0.000000 0.000000 0.000000 10.000000 
Bip01_Head 0.000000 0.000000 0.000000 0.000000 0.000000 0.000000 10.000000 
eye_left_bone 0.000000 0.000000 0.000000 0.000000 0.000000 0.000000 10.000000 
eye_right_bone 0.000000 0.000000 0.000000 0.000000 0.000000 0.000000 10.000000 
L_forearm 0.000000 0.000000 0.000000 0.000000 0.000000 0.000000 10.000000 
L_front_hand 0.000000 0.000000 0.000000 0.000000 0.000000 0.000000 10.000000 
L_weapon_bone 0.000000 0.000000 0.000000 0.000000 0.000000 0.000000 10.000000 
L_front_hand01_01 0.000000 0.000000 0.000000 0.000000 0.000000 0.000000 10.000000 
L_front_hand02_01 0.000000 0.000000 0.000000 0.000000 0.000000 0.000000 10.000000 
L_front_hand03_01 0.000000 0.000000 0.000000 0.000000 0.000000 0.000000 10.000000 
L_front_hand01_02 0.000000 0.000000 0.000000 0.000000 0.000000 0.000000 10.000000 
L_front_hand02_02 0.000000 0.000000 0.000000 0.000000 0.000000 0.000000 10.000000 
L_front_hand03_02 0.000000 0.000000 0.000000 0.000000 0.000000 0.000000 10.000000 
R_forearm 0.000000 0.000000 0.000000 0.000000 0.000000 0.000000 10.000000 
R_front_hand 0.000000 0.000000 0.000000 0.000000 0.000000 0.000000 10.000000 
R_weapon_bone 0.000000 0.000000 0.000000 0.000000 0.000000 0.000000 10.000000 
R_front_hand01_01 0.000000 0.000000 0.000000 0.000000 0.000000 0.000000 10.000000 
R_front_hand02_01 0.000000 0.000000 0.000000 0.000000 0.000000 0.000000 10.000000 
R_front_hand03_01 0.000000 0.000000 0.000000 0.000000 0.000000 0.000000 10.000000 
R_front_hand01_02 0.000000 0.000000 0.000000 0.000000 0.000000 0.000000 10.000000 
R_front_hand02_02 0.000000 0.000000 0.000000 0.000000 0.000000 0.000000 10.000000 
R_front_hand03_02 0.000000 0.000000 0.000000 0.000000 0.000000 0.000000 10.000000 
null_rope01_connect 0.000000 0.000000 0.000000 0.000000 0.000000 0.000000 10.000000 
Rope1_Seg01 0.000000 0.000000 0.000000 0.000000 0.000000 0.000000 10.000000 
Rope1_Seg02 0.000000 0.000000 0.000000 0.000000 0.000000 0.000000 10.000000 
Rope1_Seg03 0.000000 0.000000 0.000000 0.000000 0.000000 0.000000 10.000000 
Rope1_Seg04 0.000000 0.000000 0.000000 0.000000 0.000000 0.000000 10.000000 
Rope1_Seg05 0.000000 0.000000 0.000000 0.000000 0.000000 0.000000 10.000000 
Rope1_Seg06 0.000000 0.000000 0.000000 0.000000 0.000000 0.000000 10.000000 
Rope1_Seg07 0.000000 0.000000 0.000000 0.000000 0.000000 0.000000 10.000000 
Rope1_Seg09 0.000000 0.000000 0.000000 0.000000 0.000000 0.000000 10.000000 
L_mid_hand01 0.000000 0.000000 0.000000 0.000000 0.000000 0.000000 10.000000 
L_mid_hand02 0.000000 0.000000 0.000000 0.000000 0.000000 0.000000 10.000000 
L_mid_hand03 0.000000 0.000000 0.000000 0.000000 0.000000 0.000000 10.000000 
null_rope02_connect 0.000000 0.000000 0.000000 0.000000 0.000000 0.000000 10.000000 
Rope2_Seg01 0.000000 0.000000 0.000000 0.000000 0.000000 0.000000 10.000000 
Rope2_Seg02 0.000000 0.000000 0.000000 0.000000 0.000000 0.000000 10.000000 
Rope2_Seg03 0.000000 0.000000 0.000000 0.000000 0.000000 0.000000 10.000000 
Rope2_Seg04 0.000000 0.000000 0.000000 0.000000 0.000000 0.000000 10.000000 
Rope2_Seg05 0.000000 0.000000 0.000000 0.000000 0.000000 0.000000 10.000000 
Rope2_Seg06 0.000000 0.000000 0.000000 0.000000 0.000000 0.000000 10.000000 
Rope2_Seg07 0.000000 0.000000 0.000000 0.000000 0.000000 0.000000 10.000000 
Rope2_Seg09 0.000000 0.000000 0.000000 0.000000 0.000000 0.000000 10.000000 
R_mid_hand01 0.000000 0.000000 0.000000 0.000000 0.000000 0.000000 10.000000 
R_mid_hand02 0.000000 0.000000 0.000000 0.000000 0.000000 0.000000 10.000000 
R_mid_hand03 0.000000 0.000000 0.000000 0.000000 0.000000 0.000000 10.000000 
spine02 0.000000 0.000000 0.000000 0.000000 0.000000 0.000000 10.000000 
spine03 0.000000 0.000000 0.000000 0.000000 0.000000 0.000000 10.000000 
pelvis 0.000000 0.000000 0.000000 0.000000 0.000000 0.000000 10.000000 
null_rope03_connect 0.000000 0.000000 0.000000 0.000000 0.000000 0.000000 10.000000 
null_rope04_connect 0.000000 0.000000 0.000000 0.000000 0.000000 0.000000 10.000000 
Rope3_Seg01 0.000000 0.000000 0.000000 0.000000 0.000000 0.000000 10.000000 
Rope3_Seg02 0.000000 0.000000 0.000000 0.000000 0.000000 0.000000 10.000000 
Rope3_Seg03 0.000000 0.000000 0.000000 0.000000 0.000000 0.000000 10.000000 
Rope3_Seg04 0.000000 0.000000 0.000000 0.000000 0.000000 0.000000 10.000000 
Rope3_Seg05 0.000000 0.000000 0.000000 0.000000 0.000000 0.000000 10.000000 
Rope3_Seg06 0.000000 0.000000 0.000000 0.000000 0.000000 0.000000 10.000000 
Rope3_Seg07 0.000000 0.000000 0.000000 0.000000 0.000000 0.000000 10.000000 
Rope3_Seg08 0.000000 0.000000 0.000000 0.000000 0.000000 0.000000 10.000000 
Rope3_Seg09 0.000000 0.000000 0.000000 0.000000 0.000000 0.000000 10.000000 
R_rear_hand01 0.000000 0.000000 0.000000 0.000000 0.000000 0.000000 10.000000 
R_rear_hand02 0.000000 0.000000 0.000000 0.000000 0.000000 0.000000 10.000000 
R_rear_hand03 0.000000 0.000000 0.000000 0.000000 0.000000 0.000000 10.000000 
Rope4_Seg01 0.000000 0.000000 0.000000 0.000000 0.000000 0.000000 10.000000 
Rope4_Seg02 0.000000 0.000000 0.000000 0.000000 0.000000 0.000000 10.000000 
Rope4_Seg03 0.000000 0.000000 0.000000 0.000000 0.000000 0.000000 10.000000 
Rope4_Seg04 0.000000 0.000000 0.000000 0.000000 0.000000 0.000000 10.000000 
Rope4_Seg05 0.000000 0.000000 0.000000 0.000000 0.000000 0.000000 10.000000 
Rope4_Seg06 0.000000 0.000000 0.000000 0.000000 0.000000 0.000000 10.000000 
Rope4_Seg07 0.000000 0.000000 0.000000 0.000000 0.000000 0.000000 10.000000 
Rope4_Seg08 0.000000 0.000000 0.000000 0.000000 0.000000 0.000000 10.000000 
Rope4_Seg09 0.000000 0.000000 0.000000 0.000000 0.000000 0.000000 10.000000 
L_rear_hand01 0.000000 0.000000 0.000000 0.000000 0.000000 0.000000 10.000000 
L_rear_hand02 0.000000 0.000000 0.000000 0.000000 0.000000 0.000000 10.000000 
L_rear_hand03 0.000000 0.000000 0.000000 0.000000 0.000000 0.000000 10.000000 
#Beginning of Data. Separated by tabs
#Fr	Tx	Ty	Tz	Rx	Ry	Rz	SF
[MASTER]
39 -16.546883 3752.271240 -105.351494 0.001660 0.001660 0.001660 3753.786377
40 -8.273877 3876.084473 -53.683487 0.001660 0.001660 0.001660 3876.465088
[root]
39 -14.505316 54.633194 1439.381226 -91.712082 -13.473401 -89.521652 1440.490723
40 -15.964428 21.549397 1445.990967 -91.723473 -12.085021 -89.486305 1446.239624
[chest]
39 -84.512650 -34.090519 0.000000 -0.263810 -3.056433 168.368759 91.129311
40 -84.512650 -34.090519 0.000000 -1.334166 -1.556758 168.198181 91.129311
[L_mid_tent01]
39 27.299191 22.178963 -249.918701 -19.303127 17.464081 21.390066 252.381683
40 27.299192 22.178959 -249.918701 -20.090324 14.766656 17.139780 252.381683
[R_mid_tent01]
39 23.228794 24.509907 226.238495 -168.484329 -21.389877 30.210558 228.744751
40 23.228794 24.509907 226.238495 -166.779007 -19.713045 27.088251 228.744751
[spine01]
39 -0.361383 -0.195265 0.000000 -0.000001 -0.000007 22.052340 0.410763
40 -0.361383 -0.195265 0.000000 -0.000001 -0.000007 22.052340 0.410763
[Bip01_Neck]
39 165.484543 71.581718 0.000119 176.643677 -1.657967 43.431911 180.302734
40 165.484543 71.581718 0.000119 176.643677 -1.657967 43.431911 180.302734
[L_humerus]
39 -13.983130 -135.272980 -120.471481 -0.712975 74.988655 89.555084 181.680161
40 -13.983130 -135.272980 -120.471481 -3.621646 72.190567 86.554985 181.680161
[R_humerus]
39 -13.983309 -135.273102 125.287651 31.529797 -76.535255 63.969837 184.909012
40 -13.983309 -135.273102 125.287651 29.823820 -73.425293 65.760155 184.909012
[weapon_bone]
39 235.964890 -300.705902 0.000000 0.000000 -89.951546 -128.212341 382.234833
40 235.964890 -300.705902 0.000000 0.000000 -89.951546 -128.212341 382.234833
[Bip01_Head]
39 203.286133 162.408264 31.616465 9.851846 2.936846 -45.282253 262.109314
40 203.286133 162.408203 31.616468 6.360951 2.839124 -44.297089 262.109283
[eye_left_bone]
39 -24.626970 125.451866 -64.772606 0.000000 -90.000000 -99.840431 143.318359
40 -24.626970 125.451866 -64.772606 0.000000 -90.000000 -99.840431 143.318359
[eye_right_bone]
39 -24.626970 125.451866 64.327362 0.000000 -89.965736 80.156380 143.117676
40 -24.626970 125.451866 64.327362 0.000000 -89.965736 80.156380 143.117676
[L_forearm]
39 322.776093 0.000000 -0.000119 0.000376 0.002317 -71.545990 322.776093
40 322.776093 0.000000 -0.000119 0.000028 -0.002347 -91.355515 322.776093
[L_front_hand]
39 241.149185 -0.042021 -3.300071 0.836591 -1.835726 -27.423458 241.171753
40 241.149185 -0.042021 -3.300071 0.836591 -1.835726 -27.423458 241.171753
[L_weapon_bone]
39 156.183838 0.000000 0.000000 0.000014 0.000007 0.000001 156.183838
40 156.183838 0.000000 0.000000 0.000014 0.000007 0.000001 156.183838
[L_front_hand01_01]
39 86.095154 20.947098 -0.655860 -0.366594 -0.477154 75.385574 88.609184
40 86.095154 20.947098 -0.655860 -0.366594 -0.477154 75.385574 88.609184
[L_front_hand02_01]
39 86.935165 -11.437475 24.513514 154.399796 -59.883835 -61.369587 91.046425
40 86.935165 -11.437475 24.513514 154.399796 -59.883835 -61.369587 91.046425
[L_front_hand03_01]
39 86.637497 -14.123976 -20.424902 -153.913849 58.118122 -62.702866 90.126129
40 86.637497 -14.123976 -20.424902 -153.913879 58.118130 -62.702892 90.126129
[L_front_hand01_02]
39 71.020905 -0.000179 0.000030 0.000334 -0.002323 -106.379684 71.020905
40 71.020905 -0.000179 0.000030 0.000334 -0.002323 -106.379684 71.020905
[L_front_hand02_02]
39 71.020927 -0.000119 0.000060 0.000334 -0.002323 -106.379684 71.020927
40 71.020927 -0.000119 0.000060 0.000334 -0.002323 -106.379684 71.020927
[L_front_hand03_02]
39 71.020905 -0.000060 0.000060 0.000334 -0.002323 -106.379684 71.020905
40 71.020905 -0.000060 0.000060 0.000334 -0.002323 -106.379684 71.020905
[R_forearm]
39 322.776428 -0.000060 0.000030 0.194248 -0.081843 -67.911453 322.776428
40 322.776428 -0.000060 0.000030 0.213240 -0.010165 -88.913841 322.776428
[R_front_hand]
39 238.847015 -0.006795 2.210259 42.936222 -10.646152 -26.312963 238.857239
40 238.847015 -0.006795 2.210259 42.936222 -10.646152 -26.312963 238.857239
[R_weapon_bone]
39 155.664093 0.002503 -0.000030 0.003487 0.001180 -90.988930 155.664078
40 155.664093 0.002503 -0.000030 0.003487 0.001180 -90.988930 155.664078
[R_front_hand01_01]
39 87.624611 14.231146 22.918642 -154.633499 -59.950619 61.746044 91.683487
40 87.624611 14.231146 22.918642 -154.633499 -59.950619 61.746044 91.683487
[R_front_hand02_01]
39 89.356956 14.367283 -19.491137 154.602661 58.302849 63.744389 92.579636
40 89.356956 14.367283 -19.491137 154.602661 58.302849 63.744389 92.579636
[R_front_hand03_01]
39 87.286232 -22.307278 -0.143439 0.162155 -0.423168 -75.767921 90.091743
40 87.286232 -22.307278 -0.143439 0.162155 -0.423168 -75.767921 90.091743
[R_front_hand01_02]
39 71.020905 0.000060 0.000119 0.002323 -0.000334 106.381714 71.020905
40 71.020905 0.000060 0.000119 0.002323 -0.000334 106.381706 71.020905
[R_front_hand02_02]
39 71.020844 -0.000030 -0.000119 0.002323 -0.000334 106.381714 71.020836
40 71.020844 -0.000030 -0.000119 0.002323 -0.000334 106.381706 71.020836
[R_front_hand03_02]
39 71.020905 0.000000 0.000030 0.002323 -0.000334 106.381714 71.020905
40 71.020905 0.000000 0.000030 0.002323 -0.000334 106.381706 71.020905
[null_rope01_connect]
39 328.732483 0.000000 -0.000238 -149.206497 -62.819469 -131.469955 328.732483
40 328.732483 0.000000 -0.000238 -152.155151 -63.847408 -125.308823 328.732483
[Rope1_Seg01]
39 0.000000 0.000000 0.000000 32.928955 7.115868 -129.119278 0.000000
40 0.000000 0.000000 0.000000 30.718613 -0.083271 -128.311615 0.000000
[Rope1_Seg02]
39 139.999863 -0.000179 0.000000 2.878312 2.750554 -0.117293 139.999863
40 139.999863 -0.000179 0.000000 6.359542 3.411665 1.043587 139.999863
[Rope1_Seg03]
39 139.999924 0.000060 -0.000060 -1.738997 1.504914 -3.662577 139.999924
40 139.999924 0.000060 -0.000060 3.097419 3.243451 -0.940177 139.999924
[Rope1_Seg04]
39 139.999924 -0.000060 -0.000119 3.128098 3.929922 -0.331529 139.999924
40 139.999924 -0.000060 -0.000119 -1.068445 2.617724 -3.941625 139.999924
[Rope1_Seg05]
39 139.999832 0.000119 -0.000060 34.282169 14.983154 22.938278 139.999832
40 139.999832 0.000119 -0.000060 34.610352 14.004630 18.591187 139.999832
[Rope1_Seg06]
39 139.999954 0.000119 -0.000060 12.974434 12.337221 5.571006 139.999954
40 139.999954 0.000119 -0.000060 16.188383 13.682243 5.856080 139.999954
[Rope1_Seg07]
39 139.999985 0.000060 0.000000 4.748320 6.514176 1.209120 139.999985
40 139.999985 0.000060 0.000000 4.459375 5.945375 0.466302 139.999985
[Rope1_Seg09]
39 121.602913 0.000119 -0.000089 -89.793175 -1.359789 0.847147 121.602913
40 121.602913 0.000119 -0.000089 -89.793175 -1.359789 0.847147 121.602913
[L_mid_hand01]
39 103.859421 1.038730 8.195221 130.544373 -67.584534 -38.866943 104.187431
40 103.859421 1.038730 8.195221 130.544373 -67.584534 -38.866943 104.187431
[L_mid_hand02]
39 105.572853 -4.139662 -10.864139 -168.923172 43.409309 -73.498886 106.211075
40 105.572853 -4.139662 -10.864139 -168.923172 43.409309 -73.498886 106.211075
[L_mid_hand03]
39 104.641464 17.579376 -3.913581 -6.012627 17.808174 74.893669 106.179977
40 104.641464 17.579376 -3.913581 -6.012627 17.808174 74.893669 106.179977
[null_rope02_connect]
39 328.732849 0.000179 -0.000119 -133.069092 66.946129 -23.902664 328.732849
40 328.732849 0.000179 -0.000119 -136.946472 67.568794 -29.392162 328.732849
[Rope2_Seg01]
39 0.000074 0.000008 0.000000 9.678059 11.624266 -50.532639 0.000075
40 0.000075 0.000004 0.000000 2.305133 5.395725 -52.586098 0.000075
[Rope2_Seg02]
39 139.999741 -0.000060 -0.000119 -20.325798 -4.890265 -13.045320 139.999756
40 139.999741 -0.000060 -0.000119 -19.618378 -0.066265 -13.484184 139.999756
[Rope2_Seg03]
39 140.000107 0.000030 0.000000 -13.578658 0.022035 -12.362278 140.000107
40 140.000107 0.000030 0.000000 -5.987968 3.734272 -6.802596 140.000107
[Rope2_Seg04]
39 139.999802 0.000000 -0.000060 -12.883039 4.384628 -18.099873 139.999802
40 139.999802 0.000000 -0.000060 -10.645458 2.422149 -13.033965 139.999802
[Rope2_Seg05]
39 139.999985 -0.000060 0.000119 -3.275454 3.368188 -6.914610 139.999985
40 139.999985 -0.000060 0.000119 -5.192902 2.400542 -8.279716 139.999985
[Rope2_Seg06]
39 139.999893 -0.000030 -0.000119 -1.398030 2.011271 -3.614826 139.999893
40 139.999893 -0.000030 -0.000119 -1.836279 1.626261 -3.621331 139.999893
[Rope2_Seg07]
39 139.999893 0.000060 -0.000060 -0.722663 1.215398 -2.063634 139.999893
40 139.999893 0.000060 -0.000060 -1.049159 1.103842 -2.268967 139.999893
[Rope2_Seg09]
39 121.338966 0.000089 -0.000060 33.793236 -1.359788 -0.847141 121.338966
40 121.338966 0.000089 -0.000060 33.793236 -1.359788 -0.847141 121.338966
[R_mid_hand01]
39 104.680779 11.144459 -10.335981 -16.212063 45.237247 70.462852 105.778534
40 104.680779 11.144459 -10.335981 -16.212063 45.237247 70.462852 105.778534
[R_mid_hand02]
39 104.070427 2.443552 8.231699 49.067368 -67.749771 39.286453 104.424065
40 104.070427 2.443552 8.231699 49.067368 -67.749771 39.286453 104.424065
[R_mid_hand03]
39 106.028137 -11.221827 -5.996406 -177.101105 15.551026 -76.585571 106.788818
40 106.028137 -11.221827 -5.996406 -177.101105 15.551026 -76.585571 106.788818
[spine02]
39 129.756927 0.001550 0.000119 0.361470 -4.044672 -12.954954 129.756927
40 129.756927 0.001550 0.000119 0.360765 -4.044735 -12.935005 129.756927
[spine03]
39 78.613899 0.081627 -4.899006 1.897722 3.830681 16.509747 78.766441
40 78.613899 0.081631 -4.899006 1.897108 3.830984 16.491398 78.766441
[pelvis]
39 169.435242 0.051022 0.000000 -0.060567 -0.180191 14.152716 169.435257
40 169.435242 0.051022 0.000000 -0.060489 -0.180217 14.102880 169.435257
[null_rope03_connect]
39 -1.257226 -2.466202 137.391083 0.000000 -89.429390 63.755726 137.418976
40 -1.257226 -2.466202 137.391083 157.300522 -89.397369 -94.907150 137.418976
[null_rope04_connect]
39 -1.259640 -2.480268 -137.844437 0.000000 -89.429390 63.755726 137.872513
40 -1.259640 -2.480268 -137.844437 157.300522 -89.397369 -94.907150 137.872513
[Rope3_Seg01]
39 -0.000037 -0.000292 0.000000 10.366878 26.241112 -96.050369 0.000294
40 -0.000038 -0.000298 0.000000 9.851190 28.013195 -96.598038 0.000301
[Rope3_Seg02]
39 139.999924 -0.000119 0.000060 0.456948 -1.333738 4.686526 139.999924
40 139.999924 -0.000119 0.000060 0.421885 -1.192218 4.326049 139.999924
[Rope3_Seg03]
39 139.999924 -0.000119 0.000119 0.241873 -1.525845 5.758181 139.999924
40 139.999924 -0.000119 0.000119 0.239996 -1.385763 5.263226 139.999924
[Rope3_Seg04]
39 139.999924 0.000119 0.000000 -0.480445 -2.195873 9.846978 139.999924
40 139.999924 0.000119 0.000000 -0.420341 -2.325810 9.518848 139.999924
[Rope3_Seg05]
39 139.999924 -0.000238 0.000060 0.124085 -0.655445 -0.651885 139.999924
40 139.999924 -0.000238 0.000060 0.174928 -0.021737 -0.878708 139.999924
[Rope3_Seg06]
39 139.999893 -0.000119 -0.000060 0.537399 0.568892 -6.849670 139.999893
40 139.999893 -0.000119 -0.000060 0.468460 1.518809 -7.401684 139.999893
[Rope3_Seg07]
39 139.999771 0.000060 -0.000119 0.466735 -0.003007 -2.501081 139.999771
40 139.999771 0.000060 -0.000119 0.424932 0.496810 -2.786179 139.999771
[Rope3_Seg08]
39 139.999985 -0.000060 0.000000 0.486746 -0.026282 -1.576181 139.999985
40 139.999985 -0.000060 0.000000 0.452483 0.285352 -1.698610 139.999985
[Rope3_Seg09]
39 90.185997 -0.000179 -0.000060 89.793228 -1.359877 -0.847183 90.185997
40 90.185997 -0.000179 -0.000060 89.793228 -1.359877 -0.847183 90.185997
[R_rear_hand01]
39 103.366196 -6.073594 -10.757982 -177.714203 24.565960 -73.910950 104.101845
40 103.366196 -6.073594 -10.757982 -177.714203 24.565960 -73.910950 104.101845
[R_rear_hand02]
39 100.509819 12.039542 -7.992327 -12.874829 36.868488 72.167213 101.543350
40 100.509819 12.039542 -7.992327 -12.874829 36.868488 72.167213 101.543350
[R_rear_hand03]
39 101.539970 5.215704 5.435467 71.484581 -71.816628 21.513813 101.819031
40 101.539970 5.215704 5.435467 71.484581 -71.816628 21.513813 101.819031
[Rope4_Seg01]
39 0.000010 0.000038 -0.000114 -94.386765 -6.408272 -127.794701 0.000121
40 0.000010 0.000038 -0.000114 -102.548882 12.925320 -123.040794 0.000121
[Rope4_Seg02]
39 139.999985 0.000060 0.000119 6.024394 12.183813 -10.504176 139.999985
40 139.999985 0.000060 0.000119 -0.600412 -2.061614 0.754228 139.999985
[Rope4_Seg03]
39 139.999924 0.000000 -0.000238 13.577690 16.083054 -30.750225 139.999924
40 139.999924 0.000000 -0.000238 -0.460063 -4.645167 -0.445560 139.999924
[Rope4_Seg04]
39 139.999985 0.000000 0.000119 29.270954 60.661526 -50.568398 139.999985
40 139.999985 0.000000 0.000119 -1.013885 -6.488565 1.326291 139.999985
[Rope4_Seg05]
39 139.999802 -0.000060 -0.000119 17.689350 4.026470 -23.186617 139.999802
40 139.999802 -0.000060 -0.000119 -3.213483 14.927407 22.007458 139.999802
[Rope4_Seg06]
39 139.999924 0.000000 0.000060 3.368142 -1.277237 -6.040824 139.999924
40 139.999924 0.000000 0.000060 -5.020125 5.050304 9.613187 139.999924
[Rope4_Seg07]
39 139.999802 0.000000 0.000000 1.069379 -0.534034 -1.962084 139.999802
40 139.999802 0.000000 0.000000 -3.947419 2.138199 5.493235 139.999802
[Rope4_Seg08]
39 139.999924 0.000000 0.000119 -1.462285 0.006942 0.026241 139.999924
40 139.999924 0.000000 0.000119 -3.417548 0.713664 2.301087 139.999924
[Rope4_Seg09]
39 90.185791 0.000060 0.000060 -135.617828 2.228885 0.850567 90.185791
40 90.185791 0.000060 0.000060 -135.617828 2.228885 0.850567 90.185791
[L_rear_hand01]
39 101.696655 -8.392275 -7.654577 -12.874829 -36.868488 107.832764 102.329041
40 101.696655 -8.392275 -7.654577 -12.874829 -36.868488 107.832764 102.329041
[L_rear_hand02]
39 102.726799 -1.568258 5.773216 71.484627 71.816643 158.486160 102.900848
40 102.726799 -1.568258 5.773216 71.484581 71.816628 158.486160 102.900848
[L_rear_hand03]
39 104.552910 9.721220 -10.420293 -177.714203 -24.565960 -106.089035 105.519653
40 104.552910 9.721220 -10.420293 -177.714203 -24.565960 -106.089035 105.519653
